<svg width="15" height="16" viewBox="0 0 15 16" fill="none" xmlns="http://www.w3.org/2000/svg">
<path d="M5.625 13.6252V9.0002C5.625 8.65017 5.625 8.47515 5.69312 8.34146C5.75304 8.22386 5.84865 8.12825 5.96626 8.06832C6.09995 8.0002 6.27497 8.0002 6.625 8.0002H8.375C8.72503 8.0002 8.90005 8.0002 9.03374 8.06832C9.15135 8.12825 9.24696 8.22386 9.30688 8.34146C9.375 8.47515 9.375 8.65017 9.375 9.0002V13.6252M6.88606 2.22771L2.64712 5.52467C2.36376 5.74505 2.22209 5.85525 2.12002 5.99325C2.0296 6.11549 1.96225 6.2532 1.92127 6.39962C1.875 6.56491 1.875 6.7444 1.875 7.10337V11.6252C1.875 12.3253 1.875 12.6753 2.01124 12.9427C2.13108 13.1779 2.32231 13.3691 2.55751 13.489C2.8249 13.6252 3.17493 13.6252 3.875 13.6252H11.125C11.8251 13.6252 12.1751 13.6252 12.4425 13.489C12.6777 13.3691 12.8689 13.1779 12.9888 12.9427C13.125 12.6753 13.125 12.3253 13.125 11.6252V7.10337C13.125 6.7444 13.125 6.56491 13.0787 6.39962C13.0377 6.2532 12.9704 6.11549 12.88 5.99325C12.7779 5.85525 12.6362 5.74505 12.3529 5.52467L8.11394 2.22771C7.89436 2.05693 7.78457 1.97154 7.66334 1.93871C7.55637 1.90975 7.44363 1.90975 7.33666 1.93871C7.21543 1.97154 7.10564 2.05693 6.88606 2.22771Z" stroke="#757575" stroke-width="0.8" stroke-linecap="round" stroke-linejoin="round"/>
</svg>
