<svg width="225" height="41" viewBox="0 0 225 41" fill="none" xmlns="http://www.w3.org/2000/svg">
<g clip-path="url(#clip0_10211_280441)">
<path d="M39.7305 5.7213V-0.00012207H10.8047V28.9257H20.7375V23.2042H16.5261V17.3235V5.7213H34.0091H39.7305Z" fill="#3B318F"/>
<path d="M39.7266 28.9256V23.2042H31.3152V28.9256H39.7266Z" fill="#3B318F"/>
<path d="M25.3402 11.6021L18.9624 17.3235H23.1966V34.8064H5.71361V17.3235H8.40358V11.6021H-0.0078125V40.5278H28.918V28.9257V11.6021H25.3402Z" fill="#3B318F"/>
<path d="M39.7067 11.1354H37.4948V8.91968H35.0401V11.1354H32.8281V13.5901H35.0401V15.8021H37.4948V13.5901H39.7067V11.1354Z" fill="#C9C8D3"/>
<path d="M175.1 12.9566C175.1 14.4325 174.679 15.4873 173.84 16.1209C173.002 16.7545 171.814 17.1339 170.278 17.2553V15.0434C171.139 14.9637 171.761 14.7626 172.152 14.4477C172.539 14.129 172.736 13.6434 172.736 12.987H170.156V8.32031H175.1V12.9566Z" fill="#C9C8D3"/>
<path d="M193.429 25.7159H180.908C181.132 26.7403 181.667 27.5522 182.509 28.1441C183.348 28.7397 184.395 29.0357 185.647 29.0357C186.508 29.0357 187.271 28.9067 187.939 28.6525C188.606 28.3945 189.225 27.9923 189.801 27.4384L192.355 30.208C190.795 31.9912 188.519 32.8828 185.526 32.8828C183.659 32.8828 182.008 32.5186 180.574 31.7901C179.136 31.0617 178.032 30.0525 177.255 28.7587C176.477 27.4649 176.086 26.0004 176.086 24.3614C176.086 22.7224 176.469 21.2806 177.239 19.9793C178.01 18.6779 179.064 17.6611 180.407 16.9327C181.75 16.2042 183.253 15.84 184.915 15.84C186.576 15.84 187.999 16.189 189.312 16.8833C190.625 17.5814 191.653 18.5831 192.404 19.8844C193.152 21.1858 193.527 22.6996 193.527 24.4183C193.527 24.479 193.497 24.9115 193.436 25.7121L193.429 25.7159ZM182.198 20.3928C181.458 21.0075 181.011 21.8497 180.844 22.9159H188.993C188.83 21.8687 188.379 21.034 187.639 20.408C186.899 19.782 186 19.4709 184.934 19.4709C183.868 19.4709 182.934 19.7782 182.194 20.3928H182.198Z" fill="#3B318F"/>
<path d="M202.085 16.4584C203.056 16.0486 204.179 15.8438 205.454 15.8438V20.2714C204.919 20.2297 204.562 20.2107 204.376 20.2107C203.003 20.2107 201.925 20.5939 201.148 21.3641C200.37 22.1343 199.979 23.2877 199.979 24.8243V32.879H195.18V16.0866H199.763V18.2719C200.336 17.4714 201.11 16.8681 202.085 16.4584Z" fill="#3B318F"/>
<path opacity="0.5" fill-rule="evenodd" clip-rule="evenodd" d="M57.4212 16.1094C57.0646 14.7891 56.5334 13.4953 55.8353 12.285L58.2483 8.34298C57.6337 7.50829 56.9545 6.70395 56.1957 5.95273C55.4407 5.19392 54.6402 4.5072 53.8055 3.90016L49.8597 6.31317C48.6418 5.61886 47.3594 5.0839 46.0315 4.73105L44.954 0.238903C43.9068 0.0795529 42.8597 -0.00012207 41.8125 -0.00012207V11.7121C42.5106 11.7121 43.2163 11.7956 43.922 11.9739C48.5431 13.1387 51.3431 17.8281 50.1784 22.4492C49.1919 26.3647 45.6748 28.9712 41.8125 28.9674V40.6796C41.8125 40.6796 41.8201 40.6796 41.8239 40.6796H41.8277C42.8786 40.6796 43.9296 40.5999 44.9691 40.4368L46.0467 35.9446C47.367 35.588 48.6608 35.0568 49.8711 34.3587L53.8131 36.7718C54.6478 36.1571 55.4521 35.478 56.2109 34.7192C56.9621 33.9604 57.6488 33.1636 58.2559 32.3289L55.8429 28.3831C56.5448 27.169 57.0721 25.8828 57.4326 24.5549L61.9171 23.466C62.2396 21.3869 62.2396 19.2622 61.9171 17.1793L57.425 16.1056L57.4212 16.1094Z" fill="#C9C8D3"/>
<path d="M211.565 33.5658H206.766V38.3311H211.565V33.5658Z" fill="#3B318F"/>
<path d="M223.714 19.6151C222.997 18.3328 222.006 17.3387 220.747 16.6292C219.483 15.9197 218.083 15.5669 216.547 15.5669C214.27 15.5669 212.536 16.284 211.349 17.7181V15.8135H206.766V32.8791H211.565V30.6103C212.775 31.942 214.437 32.6097 216.547 32.6097C218.083 32.6097 219.483 32.2569 220.747 31.5474C222.006 30.8379 222.997 29.8477 223.714 28.5615C224.431 27.2791 224.791 25.788 224.791 24.0883C224.791 22.3886 224.431 20.8937 223.714 19.6151ZM218.743 27.4271C217.954 28.258 216.945 28.6715 215.716 28.6715C214.486 28.6715 213.473 28.258 212.684 27.4271C211.895 26.5962 211.501 25.4845 211.501 24.0883C211.501 22.6921 211.895 21.5805 212.684 20.7496C213.473 19.9187 214.486 19.5051 215.716 19.5051C216.945 19.5051 217.954 19.9187 218.743 20.7496C219.533 21.5805 219.927 22.6921 219.927 24.0883C219.927 25.4845 219.533 26.5962 218.743 27.4271Z" fill="#3B318F"/>
<path d="M82.7682 32.3176H79.2701L72.7329 17.1793V32.3176H67.9297V8.39612H72.7329L81.0002 27.5485L89.2977 8.39612H94.101V32.3214H89.2977V17.1831L82.7606 32.3214L82.7682 32.3176Z" fill="#474342"/>
<path d="M95.625 20.3094C95.625 18.4237 95.9475 16.7088 96.5963 15.1571C97.2451 13.6053 98.148 12.285 99.3014 11.1885C100.459 10.0958 101.821 9.24974 103.391 8.65028C104.962 8.05461 106.658 7.75488 108.483 7.75488C110.308 7.75488 112.034 8.05461 113.605 8.65028C115.176 9.24974 116.534 10.0958 117.68 11.1885C118.826 12.2812 119.717 13.6053 120.355 15.1571C120.992 16.7088 121.311 18.4237 121.311 20.3094C121.311 22.195 120.992 23.9441 120.355 25.492C119.717 27.0438 118.826 28.3717 117.68 29.4758C116.534 30.5798 115.176 31.4297 113.605 32.0292C112.034 32.6248 110.327 32.9246 108.483 32.9246C106.639 32.9246 104.962 32.6248 103.391 32.0292C101.821 31.4297 100.459 30.5798 99.3014 29.4758C98.148 28.3717 97.2451 27.0438 96.5963 25.492C95.9475 23.9403 95.625 22.214 95.625 20.3094ZM100.428 20.3094C100.428 21.6676 100.641 22.8893 101.066 23.9744C101.491 25.0595 102.067 25.9815 102.8 26.7403C103.528 27.4991 104.385 28.0834 105.368 28.4893C106.351 28.8953 107.39 29.0964 108.483 29.0964C109.576 29.0964 110.642 28.8953 111.613 28.4893C112.584 28.0834 113.438 27.5029 114.166 26.7403C114.895 25.9815 115.468 25.0595 115.885 23.9744C116.299 22.8893 116.507 21.6676 116.507 20.3094C116.507 18.9511 116.299 17.7712 115.885 16.7088C115.468 15.6465 114.899 14.7321 114.166 13.9733C113.438 13.2145 112.584 12.6302 111.613 12.2243C110.642 11.8183 109.595 11.6172 108.483 11.6172C107.371 11.6172 106.32 11.8183 105.338 12.2243C104.355 12.6302 103.498 13.2107 102.769 13.9733C102.041 14.7321 101.468 15.6465 101.05 16.7088C100.633 17.7712 100.428 18.9739 100.428 20.3094Z" fill="#474342"/>
<path d="M123.594 8.39612H134.418C135.978 8.39612 137.408 8.69964 138.705 9.30669C140.003 9.91374 141.111 10.7522 142.033 11.8146C142.955 12.8769 143.676 14.1403 144.192 15.601C144.708 17.0617 144.966 18.6324 144.966 20.3132C144.966 21.994 144.7 23.6634 144.176 25.1316C143.649 26.5999 142.886 27.8672 141.881 28.9333C140.879 29.9994 139.65 30.8265 138.201 31.426C136.751 32.0216 135.105 32.3214 133.261 32.3214H123.594V8.39612ZM128.397 28.6108H132.897C134.092 28.6108 135.143 28.3983 136.042 27.9734C136.945 27.5485 137.7 26.9642 138.307 26.2243C138.914 25.4845 139.377 24.6043 139.692 23.5799C140.007 22.5555 140.162 21.4362 140.162 20.2222C140.162 19.0081 139.992 17.9306 139.646 16.9403C139.301 15.9463 138.796 15.0926 138.125 14.3717C137.457 13.6509 136.641 13.0931 135.678 12.6986C134.714 12.304 133.625 12.1067 132.411 12.1067H128.397V28.6146V28.6108Z" fill="#474342"/>
<path d="M157.646 32.9284C156.185 32.9284 154.823 32.697 153.556 32.2303C152.288 31.7636 151.188 31.1111 150.259 30.2688C149.325 29.4265 148.593 28.4135 148.054 27.2298C147.516 26.046 147.25 24.7219 147.25 23.2612V8.39612H152.053V22.9577C152.053 23.7886 152.175 24.5739 152.417 25.3138C152.66 26.0536 153.017 26.6986 153.484 27.2449C153.95 27.7913 154.531 28.2276 155.233 28.5539C155.931 28.8802 156.739 29.0395 157.649 29.0395C158.56 29.0395 159.368 28.8764 160.066 28.5539C160.764 28.2314 161.352 27.7951 161.831 27.2449C162.305 26.6986 162.665 26.0536 162.908 25.3138C163.151 24.5739 163.272 23.7886 163.272 22.9577V8.39612H168.076V23.2612C168.076 24.7219 167.806 26.0422 167.271 27.2298C166.732 28.4173 165.993 29.4303 165.052 30.2688C164.111 31.1111 163.003 31.7636 161.739 32.2303C160.472 32.697 159.11 32.9284 157.649 32.9284H157.646Z" fill="#474342"/>
</g>
<defs>
<clipPath id="clip0_10211_280441">
<rect width="224.805" height="40.6835" fill="white"/>
</clipPath>
</defs>
</svg>
