<svg width="277" height="48" viewBox="0 0 277 48" fill="none" xmlns="http://www.w3.org/2000/svg">
<g clip-path="url(#clip0_1470_502)">
<g clip-path="url(#clip1_1470_502)">
<rect width="48" height="48" rx="13.3333" fill="#465FFF"/>
<path d="M21.898 37.6665L10.714 12.4665H14.266L24.538 35.8425H22.858L33.274 12.4665H36.634L25.402 37.6665H21.898Z" fill="white"/>
</g>
<path d="M69.691 41L54.811 7.4H58.651L72.571 39.032H70.459L84.475 7.4H88.075L73.195 41H69.691ZM100.054 41.24C97.4296 41.24 95.1256 40.696 93.1416 39.608C91.1576 38.488 89.6056 36.968 88.4856 35.048C87.3656 33.096 86.8056 30.872 86.8056 28.376C86.8056 25.88 87.3336 23.672 88.3896 21.752C89.4776 19.832 90.9496 18.328 92.8056 17.24C94.6936 16.12 96.8056 15.56 99.1416 15.56C101.51 15.56 103.606 16.104 105.43 17.192C107.286 18.248 108.742 19.752 109.798 21.704C110.854 23.624 111.382 25.848 111.382 28.376C111.382 28.536 111.366 28.712 111.334 28.904C111.334 29.064 111.334 29.24 111.334 29.432H89.3976V26.888H109.51L108.166 27.896C108.166 26.072 107.766 24.456 106.966 23.048C106.198 21.608 105.142 20.488 103.798 19.688C102.454 18.888 100.902 18.488 99.1416 18.488C97.4136 18.488 95.8616 18.888 94.4856 19.688C93.1096 20.488 92.0376 21.608 91.2696 23.048C90.5016 24.488 90.1176 26.136 90.1176 27.992V28.52C90.1176 30.44 90.5336 32.136 91.3656 33.608C92.2296 35.048 93.4136 36.184 94.9176 37.016C96.4536 37.816 98.1976 38.216 100.15 38.216C101.686 38.216 103.11 37.944 104.422 37.4C105.766 36.856 106.918 36.024 107.878 34.904L109.798 37.112C108.678 38.456 107.27 39.48 105.574 40.184C103.91 40.888 102.07 41.24 100.054 41.24ZM130.222 15.56C132.27 15.56 134.062 15.96 135.598 16.76C137.166 17.528 138.382 18.712 139.246 20.312C140.142 21.912 140.59 23.928 140.59 26.36V41H137.182V26.696C137.182 24.04 136.51 22.04 135.166 20.696C133.854 19.32 131.998 18.632 129.598 18.632C127.806 18.632 126.238 19 124.894 19.736C123.582 20.44 122.558 21.48 121.822 22.856C121.118 24.2 120.766 25.832 120.766 27.752V41H117.358V15.8H120.622V22.712L120.094 21.416C120.894 19.592 122.174 18.168 123.934 17.144C125.694 16.088 127.79 15.56 130.222 15.56ZM156.804 41.24C154.436 41.24 152.612 40.6 151.332 39.32C150.052 38.04 149.412 36.232 149.412 33.896V10.232H152.82V33.704C152.82 35.176 153.188 36.312 153.924 37.112C154.692 37.912 155.78 38.312 157.188 38.312C158.692 38.312 159.94 37.88 160.932 37.016L162.132 39.464C161.46 40.072 160.644 40.52 159.684 40.808C158.756 41.096 157.796 41.24 156.804 41.24ZM144.9 18.632V15.8H160.5V18.632H144.9ZM167.376 41V15.8H170.784V41H167.376ZM169.104 10.232C168.4 10.232 167.808 9.992 167.328 9.512C166.848 9.032 166.608 8.456 166.608 7.784C166.608 7.112 166.848 6.552 167.328 6.104C167.808 5.624 168.4 5.384 169.104 5.384C169.808 5.384 170.4 5.608 170.88 6.056C171.36 6.504 171.6 7.064 171.6 7.736C171.6 8.44 171.36 9.032 170.88 9.512C170.432 9.992 169.84 10.232 169.104 10.232ZM189.338 41.24C186.938 41.24 184.778 40.696 182.858 39.608C180.97 38.52 179.482 37.016 178.394 35.096C177.306 33.144 176.762 30.904 176.762 28.376C176.762 25.816 177.306 23.576 178.394 21.656C179.482 19.736 180.97 18.248 182.858 17.192C184.778 16.104 186.938 15.56 189.338 15.56C191.546 15.56 193.514 16.056 195.242 17.048C197.002 18.04 198.394 19.496 199.418 21.416C200.474 23.304 201.002 25.624 201.002 28.376C201.002 31.096 200.49 33.416 199.466 35.336C198.442 37.256 197.05 38.728 195.29 39.752C193.562 40.744 191.578 41.24 189.338 41.24ZM189.578 38.216C191.37 38.216 192.97 37.816 194.378 37.016C195.818 36.184 196.938 35.032 197.738 33.56C198.57 32.056 198.986 30.328 198.986 28.376C198.986 26.392 198.57 24.664 197.738 23.192C196.938 21.72 195.818 20.584 194.378 19.784C192.97 18.952 191.37 18.536 189.578 18.536C187.818 18.536 186.234 18.952 184.826 19.784C183.418 20.584 182.298 21.72 181.466 23.192C180.634 24.664 180.218 26.392 180.218 28.376C180.218 30.328 180.634 32.056 181.466 33.56C182.298 35.032 183.418 36.184 184.826 37.016C186.234 37.816 187.818 38.216 189.578 38.216ZM199.082 41V33.416L199.418 28.328L198.938 23.24V5.384H202.346V41H199.082ZM221.15 41.24C218.718 41.24 216.526 40.696 214.574 39.608C212.654 38.488 211.134 36.968 210.014 35.048C208.894 33.096 208.334 30.872 208.334 28.376C208.334 25.848 208.894 23.624 210.014 21.704C211.134 19.784 212.654 18.28 214.574 17.192C216.494 16.104 218.686 15.56 221.15 15.56C223.646 15.56 225.854 16.104 227.774 17.192C229.726 18.28 231.246 19.784 232.334 21.704C233.454 23.624 234.014 25.848 234.014 28.376C234.014 30.872 233.454 33.096 232.334 35.048C231.246 36.968 229.726 38.488 227.774 39.608C225.822 40.696 223.614 41.24 221.15 41.24ZM221.15 38.216C222.974 38.216 224.59 37.816 225.998 37.016C227.406 36.184 228.51 35.032 229.31 33.56C230.142 32.056 230.558 30.328 230.558 28.376C230.558 26.392 230.142 24.664 229.31 23.192C228.51 21.72 227.406 20.584 225.998 19.784C224.59 18.952 222.99 18.536 221.198 18.536C219.406 18.536 217.806 18.952 216.398 19.784C214.99 20.584 213.87 21.72 213.038 23.192C212.206 24.664 211.79 26.392 211.79 28.376C211.79 30.328 212.206 32.056 213.038 33.56C213.87 35.032 214.99 36.184 216.398 37.016C217.806 37.816 219.39 38.216 221.15 38.216ZM240.011 41V5.384H243.419V41H240.011ZM262.646 41.24C260.022 41.24 257.718 40.696 255.734 39.608C253.75 38.488 252.198 36.968 251.078 35.048C249.958 33.096 249.398 30.872 249.398 28.376C249.398 25.88 249.926 23.672 250.982 21.752C252.07 19.832 253.542 18.328 255.398 17.24C257.286 16.12 259.398 15.56 261.734 15.56C264.102 15.56 266.198 16.104 268.022 17.192C269.878 18.248 271.334 19.752 272.39 21.704C273.446 23.624 273.974 25.848 273.974 28.376C273.974 28.536 273.958 28.712 273.926 28.904C273.926 29.064 273.926 29.24 273.926 29.432H251.99V26.888H272.102L270.758 27.896C270.758 26.072 270.358 24.456 269.558 23.048C268.79 21.608 267.734 20.488 266.39 19.688C265.046 18.888 263.494 18.488 261.734 18.488C260.006 18.488 258.454 18.888 257.078 19.688C255.702 20.488 254.63 21.608 253.862 23.048C253.094 24.488 252.71 26.136 252.71 27.992V28.52C252.71 30.44 253.126 32.136 253.958 33.608C254.822 35.048 256.006 36.184 257.51 37.016C259.046 37.816 260.79 38.216 262.742 38.216C264.278 38.216 265.702 37.944 267.014 37.4C268.358 36.856 269.51 36.024 270.47 34.904L272.39 37.112C271.27 38.456 269.862 39.48 268.166 40.184C266.502 40.888 264.662 41.24 262.646 41.24Z" fill="white"/>
</g>
<defs>
<clipPath id="clip0_1470_502">
<rect width="276.667" height="48" fill="white"/>
</clipPath>
<clipPath id="clip1_1470_502">
<rect width="48" height="48" rx="13.3333" fill="white"/>
</clipPath>
</defs>
</svg>
