<svg width="269" height="48" viewBox="0 0 269 48" fill="none" xmlns="http://www.w3.org/2000/svg">
<g clip-path="url(#clip0_1647_490)">
<g clip-path="url(#clip1_1647_490)">
<rect width="48" height="48" rx="13.3333" fill="#465FFF"/>
<path d="M29.4395 14.6821H33.2363L23.4629 36.6665H20.9785L11.1582 14.6821H15.2129L22.3379 30.4321L29.4395 14.6821Z" fill="white"/>
</g>
<path d="M68.611 40.976L54.979 6.056H59.491L69.691 33.2L70.795 36.584L71.947 33.224L82.051 6.056H86.443L73.075 40.976H68.611ZM99.313 41.528C96.881 41.528 94.705 41 92.785 39.944C90.881 38.888 89.377 37.392 88.273 35.456C87.169 33.52 86.617 31.24 86.617 28.616C86.617 26.36 87.105 24.264 88.081 22.328C89.073 20.392 90.497 18.832 92.353 17.648C94.225 16.448 96.473 15.848 99.097 15.848C100.825 15.848 102.321 16.168 103.585 16.808C104.865 17.432 105.849 18.28 106.537 19.352C107.241 20.424 107.593 21.632 107.593 22.976C107.593 24.928 106.881 26.496 105.457 27.68C104.033 28.864 102.089 29.792 99.625 30.464C97.177 31.12 94.401 31.664 91.297 32.096C91.617 33.312 92.185 34.384 93.001 35.312C93.817 36.224 94.777 36.936 95.881 37.448C96.985 37.96 98.129 38.216 99.313 38.216C100.977 38.216 102.505 37.904 103.897 37.28C105.305 36.64 106.409 35.864 107.209 34.952L109.201 37.496C108.001 38.728 106.529 39.712 104.785 40.448C103.057 41.168 101.233 41.528 99.313 41.528ZM91.009 29.24C93.473 28.888 95.657 28.464 97.561 27.968C99.465 27.472 100.961 26.824 102.049 26.024C103.137 25.208 103.681 24.16 103.681 22.88C103.681 21.792 103.281 20.912 102.481 20.24C101.697 19.568 100.577 19.232 99.121 19.232C97.793 19.232 96.497 19.56 95.233 20.216C93.985 20.856 92.953 21.832 92.137 23.144C91.337 24.44 90.937 26.08 90.937 28.064C90.937 28.464 90.961 28.856 91.009 29.24ZM136.976 41.456C135.232 41.712 133.904 41.616 132.992 41.168C132.08 40.72 131.456 39.92 131.12 38.768C130.784 37.6 130.616 36.072 130.616 34.184V27.512C130.616 24.6 130.216 22.496 129.416 21.2C128.616 19.888 127.288 19.232 125.432 19.232C124.28 19.232 123.104 19.52 121.904 20.096C120.72 20.656 119.704 21.544 118.856 22.76C118.024 23.96 117.544 25.52 117.416 27.44V41H113.48V24.224C113.48 22.832 113.24 21.616 112.76 20.576C112.28 19.536 111.76 18.552 111.2 17.624L115.16 16.376C115.592 17.032 115.984 17.704 116.336 18.392C116.704 19.064 116.944 19.792 117.056 20.576C117.776 19.152 119 18.008 120.728 17.144C122.472 16.28 124.32 15.848 126.272 15.848C129.056 15.848 131.136 16.768 132.512 18.608C133.888 20.432 134.576 23.376 134.576 27.44V33.32C134.576 34.536 134.6 35.536 134.648 36.32C134.696 37.104 134.912 37.656 135.296 37.976C135.68 38.28 136.368 38.336 137.36 38.144L136.976 41.456ZM151.618 41.192C148.834 41.192 146.81 40.608 145.546 39.44C144.282 38.272 143.65 36.392 143.65 33.8V18.944H138.778V16.376H143.77V9.848L147.586 8.72V16.376H155.674V18.944H147.586V33.848C147.586 35.352 147.946 36.448 148.666 37.136C149.386 37.808 150.522 38.144 152.074 38.144C152.442 38.144 152.914 38.096 153.49 38C154.082 37.904 154.674 37.784 155.266 37.64C155.858 37.496 156.338 37.352 156.706 37.208L157.162 40.16C156.41 40.416 155.466 40.656 154.33 40.88C153.21 41.088 152.306 41.192 151.618 41.192ZM167.321 41.12C166.185 41.12 165.129 40.904 164.153 40.472C163.177 40.04 162.393 39.328 161.801 38.336C161.209 37.344 160.913 36.008 160.913 34.328V16.376H164.873V34.208C164.873 35.888 165.169 36.968 165.761 37.448C166.353 37.928 167.057 38.168 167.873 38.168C168.241 38.168 168.721 38.12 169.313 38.024C169.905 37.912 170.409 37.776 170.825 37.616L171.305 40.28C170.713 40.52 170.041 40.72 169.289 40.88C168.537 41.04 167.881 41.12 167.321 41.12ZM160.841 11.288V6.992H165.065V11.288H160.841ZM183.8 41.528C181.544 41.528 179.568 41.008 177.872 39.968C176.176 38.928 174.856 37.464 173.912 35.576C172.968 33.688 172.496 31.488 172.496 28.976C172.496 26.496 172.92 24.272 173.768 22.304C174.632 20.32 175.904 18.752 177.584 17.6C179.264 16.432 181.336 15.848 183.8 15.848C185.384 15.848 186.832 16.088 188.144 16.568C189.456 17.048 190.768 17.856 192.08 18.992V4.856L196.04 4.376V31.64C196.04 33.464 196.136 34.952 196.328 36.104C196.536 37.24 196.8 38.168 197.12 38.888C197.456 39.608 197.8 40.232 198.152 40.76L194.264 41.312C193.816 40.768 193.4 40.072 193.016 39.224C192.648 38.36 192.44 37.536 192.392 36.752C191.672 38.256 190.544 39.432 189.008 40.28C187.472 41.112 185.736 41.528 183.8 41.528ZM184.232 38.216C186.152 38.216 187.688 37.776 188.84 36.896C189.992 36.016 190.824 34.824 191.336 33.32C191.848 31.8 192.104 30.088 192.104 28.184V23.144C191.208 21.944 190.048 20.992 188.624 20.288C187.216 19.584 185.8 19.232 184.376 19.232C182.568 19.232 181.088 19.656 179.936 20.504C178.784 21.352 177.936 22.504 177.392 23.96C176.848 25.4 176.576 27.024 176.576 28.832C176.576 30.688 176.896 32.328 177.536 33.752C178.192 35.16 179.096 36.256 180.248 37.04C181.4 37.824 182.728 38.216 184.232 38.216ZM213.741 41.528C211.197 41.528 208.973 41 207.069 39.944C205.165 38.872 203.677 37.376 202.605 35.456C201.549 33.536 201.021 31.296 201.021 28.736C201.021 26.16 201.549 23.904 202.605 21.968C203.661 20.032 205.141 18.528 207.045 17.456C208.965 16.384 211.189 15.848 213.717 15.848C216.229 15.848 218.421 16.384 220.293 17.456C222.165 18.528 223.621 20.024 224.661 21.944C225.701 23.864 226.221 26.112 226.221 28.688C226.221 31.248 225.701 33.496 224.661 35.432C223.621 37.352 222.165 38.848 220.293 39.92C218.421 40.992 216.237 41.528 213.741 41.528ZM213.741 38.216C216.269 38.216 218.301 37.352 219.837 35.624C221.373 33.88 222.141 31.584 222.141 28.736C222.141 25.872 221.365 23.576 219.813 21.848C218.277 20.104 216.245 19.232 213.717 19.232C211.141 19.232 209.061 20.112 207.477 21.872C205.893 23.616 205.101 25.92 205.101 28.784C205.101 31.616 205.893 33.896 207.477 35.624C209.061 37.352 211.149 38.216 213.741 38.216ZM244.664 40.16C243.048 40.864 241.448 41.272 239.864 41.384C238.296 41.512 236.872 41.328 235.592 40.832C234.328 40.32 233.312 39.488 232.544 38.336C231.792 37.168 231.416 35.656 231.416 33.8V5.096L235.352 4.376V33.992C235.352 35.656 235.784 36.824 236.648 37.496C237.512 38.168 238.608 38.464 239.936 38.384C241.28 38.288 242.656 37.944 244.064 37.352L244.664 40.16ZM257.734 41.528C255.302 41.528 253.126 41 251.206 39.944C249.302 38.888 247.798 37.392 246.694 35.456C245.59 33.52 245.038 31.24 245.038 28.616C245.038 26.36 245.526 24.264 246.502 22.328C247.494 20.392 248.918 18.832 250.774 17.648C252.646 16.448 254.894 15.848 257.518 15.848C259.246 15.848 260.742 16.168 262.006 16.808C263.286 17.432 264.27 18.28 264.958 19.352C265.662 20.424 266.014 21.632 266.014 22.976C266.014 24.928 265.302 26.496 263.878 27.68C262.454 28.864 260.51 29.792 258.046 30.464C255.598 31.12 252.822 31.664 249.718 32.096C250.038 33.312 250.606 34.384 251.422 35.312C252.238 36.224 253.198 36.936 254.302 37.448C255.406 37.96 256.55 38.216 257.734 38.216C259.398 38.216 260.926 37.904 262.318 37.28C263.726 36.64 264.83 35.864 265.63 34.952L267.622 37.496C266.422 38.728 264.95 39.712 263.206 40.448C261.478 41.168 259.654 41.528 257.734 41.528ZM249.43 29.24C251.894 28.888 254.078 28.464 255.982 27.968C257.886 27.472 259.382 26.824 260.47 26.024C261.558 25.208 262.102 24.16 262.102 22.88C262.102 21.792 261.702 20.912 260.902 20.24C260.118 19.568 258.998 19.232 257.542 19.232C256.214 19.232 254.918 19.56 253.654 20.216C252.406 20.856 251.374 21.832 250.558 23.144C249.758 24.44 249.358 26.08 249.358 28.064C249.358 28.464 249.382 28.856 249.43 29.24Z" fill="black"/>
</g>
<defs>
<clipPath id="clip0_1647_490">
<rect width="268.667" height="48" fill="white"/>
</clipPath>
<clipPath id="clip1_1647_490">
<rect width="48" height="48" rx="13.3333" fill="white"/>
</clipPath>
</defs>
</svg>
